<svg width="1220" height="576" viewBox="0 0 1220 576" fill="none" xmlns="http://www.w3.org/2000/svg">
<path d="M259.778 241.896C278.741 219.423 290.18 190.411 290.18 158.717C290.18 87.4002 232.366 29.6064 161.068 29.6064C160.064 29.6064 159.061 29.6643 158.058 29.6836C157.074 29.6643 156.091 29.6064 155.087 29.6064C141.68 29.6064 128.273 31.8248 115.58 36.2037C93.1451 43.9392 73.1793 58.3876 58.5377 77.2921C44.6098 95.2707 36.0833 116.837 33.1897 139.368C32.7268 142.956 32.4567 146.583 32.2638 150.21C32.0902 153.026 31.9551 155.842 31.9551 158.717C31.9551 159.315 31.9937 159.913 31.9937 160.511C31.8973 171.313 32.0902 182.154 32.0902 192.938V411.786C32.0902 413.561 32.148 415.297 32.2638 417.053C35.7168 491.436 96.2124 550.696 170.346 550.696C244.48 550.696 308.603 487.867 308.603 410.359C308.603 372.106 293.498 337.441 269.037 312.113" fill="#0062FF"/>
<path d="M230.9 164.87V210.395C230.9 228.605 245.657 243.343 263.848 243.343H289.408C328.916 243.343 360.938 275.365 360.938 314.872V544.909H322.473V367.515C322.473 337.017 297.761 312.306 267.263 312.306H252.313C240.487 312.306 230.9 321.893 230.9 333.718V382.812" fill="url(#paint0_linear_127_11)"/>
<path d="M259.778 241.896C278.741 219.423 290.18 190.411 290.18 158.717C290.18 87.4002 232.366 29.6064 161.068 29.6064C160.064 29.6064 159.061 29.6643 158.058 29.6836C157.074 29.6643 156.091 29.6064 155.087 29.6064C141.68 29.6064 128.273 31.8248 115.58 36.2037C93.1451 43.9392 73.1793 58.3876 58.5377 77.2921C44.6098 95.2707 36.0833 116.837 33.1897 139.368C32.7268 142.956 32.4567 146.583 32.2638 150.21C32.0902 153.026 31.9551 155.842 31.9551 158.717C31.9551 159.315 31.9937 159.913 31.9937 160.511C31.8973 171.313 32.0902 182.154 32.0902 192.938V411.786C32.0902 413.561 32.148 415.297 32.2638 417.053C35.7168 491.436 96.2124 550.696 170.346 550.696C244.48 550.696 308.603 487.867 308.603 410.359C308.603 372.106 293.498 337.441 269.037 312.113" fill="#0062FF"/>
<path d="M230.9 164.87V210.395C230.9 228.605 245.657 243.343 263.848 243.343H289.408C328.916 243.343 360.938 275.365 360.938 314.872V544.909H322.473V367.515C322.473 337.017 297.761 312.306 267.263 312.306H252.313C240.487 312.306 230.9 321.893 230.9 333.718V382.812" fill="url(#paint1_linear_127_11)"/>
<path d="M286.342 387.905H306.944C306.944 387.905 302.025 343.383 268.71 310.879C268.71 310.879 239.851 318.595 239.851 341.435C239.851 367.11 260.666 387.905 286.322 387.905H286.342Z" fill="url(#paint2_linear_127_11)"/>
<path d="M404.361 172.644H438.622V207.135H404.361V172.644ZM404.361 225.963H438.622V381.076H404.361V225.963Z" fill="#1F1F1F"/>
<path d="M605.004 356.423C596.323 368.827 575.431 380.96 542.714 380.96C475.679 380.96 451.238 359.259 451.238 303.471C451.238 247.684 476.47 225.982 542.309 225.982C566.75 225.982 591.79 231.673 605.004 237.614V172.664H636.544V380.652H605.004V356.442V356.423ZM543.891 346.604C589.822 346.604 605.004 335.493 605.004 303.471V272.472C592.388 265.238 569.528 260.338 543.891 260.338C496.783 260.338 482.778 270.928 482.778 303.471C482.778 336.014 497.169 346.604 543.891 346.604Z" fill="#1F1F1F"/>
<path d="M649.161 237.595C663.552 230.882 700.223 225.963 723.488 225.963C791.101 225.963 816.141 247.413 816.141 303.452V380.941H784.6V311.978C784.6 271.681 771.791 260.319 723.488 260.319C709.483 260.319 695.844 261.36 682.63 263.424V380.96H649.161V237.595Z" fill="#1F1F1F"/>
<path d="M995.718 369.348C986.651 373.225 952.931 380.98 921.391 380.98C853.584 380.98 828.738 359.278 828.738 303.49C828.738 253.123 852.195 226.001 915.275 226.001C971.662 226.001 1008.53 245.89 1001.81 316.936H861.455C865.197 341.994 880.764 348.186 921.391 348.186C957.657 348.186 986.439 342.495 995.718 337.596V369.367V369.348ZM971.662 290.045C971.469 268.614 952.14 259.046 915.275 259.046C882.153 259.046 865.988 266.8 861.647 290.045H971.643H971.662Z" fill="#1F1F1F"/>
<path d="M1025.48 406.289C1040.66 412.481 1069.83 415.336 1094.87 415.336C1140.2 415.336 1154.21 405.517 1155.79 376.08C1140.42 378.916 1121.69 380.729 1107.89 380.729C1040.28 380.729 1015.24 359.297 1015.24 303.24V226.001H1046.78V294.713C1046.78 335.011 1059.59 346.373 1107.89 346.373C1124.06 346.373 1142 345.08 1156.2 342.495V225.982H1187.74V371.933C1187.74 427.72 1162.89 449.422 1094.7 449.422C1074 449.422 1042.27 445.544 1025.5 439.854V406.269L1025.48 406.289Z" fill="#1F1F1F"/>
<path d="M385.978 340.432C385.901 340.181 385.843 339.93 385.766 339.679C369.234 277.584 322.724 251.445 322.724 251.445L391.727 172.664H348.361L292.38 236.727C275.423 231.036 256.904 227.95 236.977 227.95V172.664H205.437L205.475 381.115H237.015L236.977 262.576C237.903 262.576 238.79 262.614 239.716 262.634C256.846 263.309 348.747 271.989 358.199 381.134H391.514C391.514 367.785 389.759 354.841 386.518 342.515C386.345 341.82 386.171 341.165 385.978 340.47V340.432Z" fill="#1F1F1F"/>
<path d="M889.947 171.275L860.027 179.338H944.81V195.465H828.757V172.123L889.33 156.479C904.724 152.389 925.075 148.165 925.075 136.745C925.075 125.325 901.367 122.586 882.617 122.586C860.78 122.586 834.699 125.692 828.738 128.662V112.034C834.949 109.681 856.671 106.073 881.247 106.073C913.771 106.073 944.81 112.401 944.81 135.858C944.81 159.315 911.167 165.893 889.947 171.236V171.275Z" fill="#1F1F1F"/>
<path d="M1036.5 178.103H954.822V161.591L1025.58 108.581H1056.37V161.591H1077.72V178.103H1056.37V195.484H1036.5V178.103ZM1036.5 161.591V119.268L980.382 161.591H1036.5Z" fill="#1F1F1F"/>
<path d="M1160.42 124.361H1077.26V108.6H1187.74V120.387L1131.51 195.484H1106.43L1160.42 124.361Z" fill="#1F1F1F"/>
<defs>
<linearGradient id="paint0_linear_127_11" x1="393.694" y1="484.009" x2="217.786" y2="259.139" gradientUnits="userSpaceOnUse">
<stop stop-color="#019DFF"/>
<stop offset="0.05" stop-color="#0096FF"/>
<stop offset="0.25" stop-color="#007FFF"/>
<stop offset="0.46" stop-color="#006EFF"/>
<stop offset="0.69" stop-color="#0065FF"/>
<stop offset="1" stop-color="#0062FF"/>
</linearGradient>
<linearGradient id="paint1_linear_127_11" x1="393.694" y1="484.009" x2="217.786" y2="259.139" gradientUnits="userSpaceOnUse">
<stop stop-color="#019DFF"/>
<stop offset="0.05" stop-color="#0096FF"/>
<stop offset="0.25" stop-color="#007FFF"/>
<stop offset="0.46" stop-color="#006EFF"/>
<stop offset="0.69" stop-color="#0065FF"/>
<stop offset="1" stop-color="#0062FF"/>
</linearGradient>
<linearGradient id="paint2_linear_127_11" x1="358.894" y1="349.016" x2="228.122" y2="349.691" gradientUnits="userSpaceOnUse">
<stop offset="0.43" stop-color="#0062FF"/>
<stop offset="0.57" stop-color="#005FF9"/>
<stop offset="0.73" stop-color="#005AEA"/>
<stop offset="0.86" stop-color="#0053D9"/>
</linearGradient>
</defs>
</svg>
